<svg xmlns="http://www.w3.org/2000/svg" width="27" height="38"><g data-name="calculator"><path d="M27 38H0V0h27z" fill="#464036"/><path data-name="Shape" d="M20.5 34a2.5 2.5 0 112.5-2.5 2.5 2.5 0 01-2.5 2.5zm-7 0a2.5 2.5 0 112.5-2.5 2.5 2.5 0 01-2.5 2.5zm-7 0A2.5 2.5 0 119 31.5 2.5 2.5 0 016.5 34zm14-7a2.5 2.5 0 112.5-2.5 2.5 2.5 0 01-2.5 2.5zm-7 0a2.5 2.5 0 112.5-2.5 2.5 2.5 0 01-2.5 2.5zm-7 0A2.5 2.5 0 119 24.5 2.5 2.5 0 016.5 27zm14-7a2.5 2.5 0 112.5-2.5 2.5 2.5 0 01-2.5 2.5zm-7 0a2.5 2.5 0 112.5-2.5 2.5 2.5 0 01-2.5 2.5zm-7 0A2.5 2.5 0 119 17.5 2.5 2.5 0 016.5 20zM23 11H4V4h19v7z" fill="#e4e1db"/></g></svg>