<?xml version="1.0" encoding="utf-8"?>
<!-- Generator: Adobe Illustrator 24.0.1, SVG Export Plug-In . SVG Version: 6.00 Build 0)  -->
<svg version="1.1" id="レイヤー_1" xmlns="http://www.w3.org/2000/svg" xmlns:xlink="http://www.w3.org/1999/xlink" x="0px"
	 y="0px" width="610px" height="316px" viewBox="0 0 610 316" style="enable-background:new 0 0 610 316;" xml:space="preserve">
<style type="text/css">
	.st0{fill:#464036;}
	.st1{fill:#FFFFFF;}
</style>
<g>
	<g>
		<rect class="st0" width="610" height="316"/>
	</g>
	<g>
		<rect x="90" y="222" class="st1" width="430" height="44"/>
		<g>
			<g>
				<g id="読_7_">
					<path class="st0" d="M136.317,240.508h-6.5v-2.034h6.5V240.508z M138.604,244.919h2.376c-0.108,3.728-0.558,6.266-3.979,7.742
						c-0.216-0.521-0.72-1.296-1.188-1.818v0.792h-3.133v0.685h-2.106v-6.248h5.239v4.34c2.197-0.919,2.593-2.341,2.719-4.556
						h-2.232v-3.637h10.353v3.637h-2.413v-1.62h-5.636V244.919z M135.759,242.992h-5.114v-1.944h5.114V242.992z M130.645,243.532
						h5.114v1.945h-5.114V243.532z M135.705,237.951h-4.952v-1.944h4.952V237.951z M133.688,248.088h-1.008v1.53h1.008V248.088z
						 M140.098,238.779h-3.511v-2.106h3.511v-1.207h2.593v1.207h3.799v2.106h-3.799v0.738h3.259v2.089h-8.769v-2.089h2.917V238.779z
						 M144.761,250.249c0.234,0,0.306-0.288,0.342-2.251c0.45,0.396,1.494,0.792,2.125,0.954c-0.198,2.791-0.792,3.547-2.197,3.547
						h-1.044c-1.801,0-2.179-0.738-2.179-2.862v-4.699h2.413v4.681c0,0.576,0.018,0.631,0.216,0.631H144.761z"/>
				</g>
				<g id="ん_7_">
					<path class="st0" d="M163.786,238.329c-0.937,1.314-1.981,3.223-2.845,4.735c0.559-0.162,1.135-0.234,1.711-0.234
						c1.44,0,2.214,0.9,2.305,2.449c0.036,0.648-0.018,2.125,0.09,2.809c0.072,0.595,0.504,0.811,0.99,0.811
						c1.314,0,2.161-1.765,2.701-4.178l2.377,1.927c-0.937,3.205-2.683,5.275-5.546,5.275c-2.035,0-3.133-1.188-3.223-2.629
						c-0.072-0.918-0.072-2.431-0.126-3.024c-0.054-0.54-0.342-0.864-0.9-0.864c-1.098,0-1.927,1.135-2.539,2.61
						c-0.433,1.045-0.973,2.989-1.261,3.979l-3.097-1.044c1.332-3.583,4.879-10.911,5.833-12.622c0.234-0.504,0.63-1.188,1.008-2.07
						l3.097,1.242C164.164,237.753,163.983,238.06,163.786,238.329z"/>
				</g>
				<g id="で_7_">
					<path class="st0" d="M178.619,237.847c1.786-0.152,4.654-0.38,8.131-0.684c1.9-0.152,4.142-0.285,5.528-0.342l0.019,2.963
						c-0.988,0.02-2.603,0.02-3.647,0.229c-2.052,0.456-3.818,2.679-3.818,4.939c0,2.792,2.622,3.894,5.908,4.084l-1.083,3.191
						c-4.236-0.323-7.865-2.621-7.865-6.668c0-2.603,1.387-4.616,2.413-5.547c-1.634,0.171-4.978,0.551-7.257,1.063l-0.285-3.135
						C177.422,237.923,178.258,237.885,178.619,237.847z M191.082,243.926l-1.691,0.741c-0.513-1.103-0.836-1.729-1.444-2.603
						l1.653-0.685C190.075,242.083,190.74,243.223,191.082,243.926z M193.323,242.938l-1.672,0.798
						c-0.551-1.083-0.912-1.672-1.539-2.527l1.634-0.74C192.24,241.152,192.943,242.254,193.323,242.938z"/>
				</g>
				<g id="も_7_">
					<path class="st0" d="M207.931,238.095c-0.036,0.234-0.09,0.612-0.162,1.117c1.225-0.019,2.359-0.127,3.079-0.253l-0.09,2.593
						c-0.99,0.108-1.908,0.181-3.349,0.181c-0.09,0.647-0.162,1.332-0.252,1.998h0.018c1.026,0,2.413-0.09,3.529-0.216l-0.072,2.575
						c-0.882,0.09-1.908,0.162-2.989,0.162c-0.252,0-0.504,0-0.738,0c-0.036,0.414-0.054,0.773-0.054,1.044
						c0,1.351,0.864,1.998,2.467,1.998c2.395,0,3.565-1.134,3.565-2.395c0-1.224-0.685-2.286-1.783-3.385l3.061-0.648
						c1.17,1.585,1.692,2.863,1.692,4.394c0,2.737-2.467,4.88-6.626,4.88c-3.061,0-5.078-1.314-5.078-4.376
						c0-0.396,0.036-0.99,0.108-1.674c-1.26-0.126-2.358-0.324-3.259-0.559l0.144-2.629c1.134,0.378,2.287,0.595,3.403,0.702
						c0.072-0.666,0.162-1.351,0.252-2.017c-1.207-0.126-2.413-0.36-3.421-0.647l0.126-2.503c1.008,0.342,2.287,0.558,3.583,0.666
						c0.054-0.433,0.09-0.847,0.108-1.188c0.072-0.954,0.072-1.332,0.036-1.782l3.061,0.162
						C208.111,237.051,208.021,237.591,207.931,238.095z"/>
				</g>
				<g id="ら_7_">
					<path class="st0" d="M227.298,243.73c1.566-1.008,3.259-1.458,4.987-1.458c3.385,0,5.222,2.106,5.222,4.321
						c0,3.331-2.467,6.05-10.389,5.365l-0.846-2.862c5.258,0.773,8.157-0.36,8.157-2.557c0-1.026-0.973-1.783-2.413-1.783
						c-1.836,0-3.601,0.685-4.663,1.963c-0.36,0.432-0.559,0.72-0.738,1.116l-2.503-0.612c0.36-1.836,0.774-5.222,0.9-7.652
						l2.935,0.396C227.694,240.85,227.388,242.759,227.298,243.73z M234.878,237.573l-0.648,2.683
						c-1.891-0.252-5.96-1.116-7.382-1.477l0.684-2.61C229.333,236.727,233.312,237.393,234.878,237.573z"/>
				</g>
				<g id="え_7_">
					<path class="st0" d="M255.921,243.083c-0.9,0.738-2.395,2.106-2.683,2.431c0.144,0,0.468,0.09,0.684,0.197
						c0.414,0.198,0.685,0.541,0.918,1.188c0.162,0.45,0.324,1.009,0.468,1.423c0.144,0.486,0.522,0.756,1.098,0.756
						c1.495,0,2.665-0.126,3.601-0.288l-0.18,2.845c-0.738,0.126-2.701,0.253-3.619,0.253c-1.837,0-2.791-0.396-3.259-1.549
						c-0.198-0.54-0.378-1.261-0.486-1.675c-0.198-0.648-0.576-0.828-0.882-0.828c-0.288,0-0.648,0.306-1.081,0.774
						c-0.594,0.63-1.603,1.765-2.971,3.493l-2.557-1.783c0.378-0.323,0.882-0.756,1.44-1.296c1.044-1.063,4.033-4.016,5.6-5.726
						c-1.17,0.018-2.827,0.162-3.817,0.252c-0.648,0.054-1.242,0.162-1.621,0.234l-0.252-3.007c0.414,0.035,1.134,0.071,1.836,0.071
						c0.756,0,4.771-0.126,6.356-0.324c0.342-0.035,0.9-0.144,1.099-0.216l1.584,1.783
						C256.641,242.471,256.299,242.759,255.921,243.083z M256.407,236.889l-0.342,2.557c-1.944-0.144-5.419-0.54-7.544-0.864
						l0.414-2.521C250.987,236.402,254.462,236.763,256.407,236.889z"/>
				</g>
				<g id="る_7_">
					<path class="st0" d="M270.714,237.015c0.972,0,4.573-0.054,5.636-0.144c0.864-0.072,1.368-0.145,1.603-0.217l1.35,1.927
						c-0.468,0.288-0.936,0.559-1.386,0.883c-1.008,0.684-2.593,1.98-3.583,2.736c0.468-0.09,0.828-0.107,1.26-0.107
						c3.097,0,5.528,1.98,5.528,4.699c0,2.809-2.035,5.275-6.698,5.275c-2.539,0-4.645-1.188-4.645-3.169
						c0-1.585,1.44-3.062,3.493-3.062c2.197,0,3.601,1.279,3.907,2.989c0.72-0.486,1.063-1.188,1.063-2.07
						c0-1.549-1.584-2.521-3.565-2.521c-2.629,0-4.52,1.584-6.248,3.69l-1.98-2.053c1.152-0.899,3.259-2.683,4.321-3.564
						c1.008-0.828,2.683-2.125,3.547-2.899c-0.9,0.019-2.755,0.09-3.727,0.162c-0.54,0.036-1.188,0.09-1.621,0.162l-0.09-2.826
						C269.436,236.979,270.12,237.015,270.714,237.015z M273.865,249.583c0.288,0,0.558-0.019,0.811-0.036
						c-0.09-0.99-0.63-1.639-1.387-1.639c-0.594,0-0.936,0.36-0.936,0.72C272.353,249.187,272.947,249.583,273.865,249.583z"/>
				</g>
				<g id="ホ_7_">
					<path class="st0" d="M290.604,249.366l-2.358-1.603c1.206-1.17,2.593-3.061,3.349-4.627l2.484,1.17
						C293.215,245.928,291.558,248.322,290.604,249.366z M298.273,238.023v1.188h3.871c0.559,0,1.441-0.055,1.945-0.127v2.846
						c-0.612-0.055-1.404-0.072-1.927-0.072h-3.89v8.174c0,1.099-0.684,1.837-2.07,1.837c-1.08,0-2.125-0.036-3.133-0.162
						l-0.271-2.683c0.757,0.144,1.531,0.198,1.963,0.198c0.45,0,0.612-0.145,0.63-0.612c0.019-0.504,0.019-5.941,0.019-6.752h-4.321
						c-0.54,0-1.333,0.018-1.854,0.072v-2.863c0.558,0.072,1.296,0.145,1.854,0.145h4.321v-1.207c0-0.504-0.09-1.387-0.162-1.729
						h3.223C298.418,236.528,298.273,237.537,298.273,238.023z M304.99,247.8l-2.557,1.404c-0.811-1.62-2.053-3.763-2.881-4.861
						l2.376-1.296C302.829,244.199,304.27,246.485,304.99,247.8z"/>
				</g>
				<g id="_x30FC__21_">
					<path class="st0" d="M314.399,242.362h9.562c0.81,0,1.692-0.09,2.214-0.126v3.439c-0.468-0.019-1.476-0.108-2.214-0.108h-9.562
						c-1.026,0-2.376,0.054-3.114,0.108v-3.439C312.005,242.29,313.518,242.362,314.399,242.362z"/>
				</g>
				<g id="ム_7_">
					<path class="st0" d="M341.347,239.409c-0.612,1.783-1.927,5.888-2.791,8.283c1.927-0.181,4.069-0.433,5.726-0.631
						c-0.576-1.206-1.17-2.305-1.71-3.043l2.736-1.116c1.297,1.999,3.062,5.492,3.926,7.58l-2.953,1.314
						c-0.216-0.594-0.486-1.278-0.792-1.998c-2.971,0.36-8.139,0.882-10.317,1.116c-0.45,0.054-1.206,0.162-1.801,0.234
						l-0.504-3.188c0.648,0,1.53,0,2.143-0.018c0.09,0,0.181,0,0.271-0.019c1.044-2.7,2.448-7.22,2.988-9.146
						c0.271-0.954,0.379-1.603,0.469-2.269l3.457,0.702C341.923,237.807,341.635,238.581,341.347,239.409z"/>
				</g>
				<g id="ペ_10_">
					<path class="st0" d="M356.069,244.055c0.792-0.792,2.106-2.431,3.403-3.979c1.134-1.35,2.322-1.548,3.816-0.144
						c1.278,1.206,2.557,2.539,3.655,3.728c1.206,1.296,3.079,3.295,4.466,4.771l-2.413,2.592c-1.17-1.458-2.646-3.33-3.655-4.537
						c-1.063-1.278-2.61-3.007-3.205-3.619c-0.521-0.521-0.918-0.504-1.368,0.09c-0.63,0.829-1.765,2.485-2.448,3.457
						c-0.433,0.631-0.883,1.314-1.225,1.837l-2.629-2.719C355.043,245.063,355.475,244.649,356.069,244.055z M368.259,237.303
						c1.351,0,2.431,1.08,2.431,2.431s-1.08,2.413-2.431,2.413s-2.413-1.063-2.413-2.413S366.908,237.303,368.259,237.303z
						 M368.259,240.778c0.576,0,1.044-0.469,1.044-1.045s-0.468-1.044-1.044-1.044s-1.044,0.468-1.044,1.044
						S367.683,240.778,368.259,240.778z"/>
				</g>
				<g id="_x30FC__20_">
					<path class="st0" d="M380.819,242.362h9.562c0.81,0,1.692-0.09,2.214-0.126v3.439c-0.468-0.019-1.476-0.108-2.214-0.108h-9.562
						c-1.026,0-2.376,0.054-3.114,0.108v-3.439C378.425,242.29,379.938,242.362,380.819,242.362z"/>
				</g>
				<g id="ジ_10_">
					<path class="st0" d="M405.084,243.173l-1.603,2.448c-1.099-0.756-2.917-1.944-4.195-2.629l1.585-2.412
						C402.167,241.264,404.075,242.471,405.084,243.173z M406.164,247.188c3.097-1.71,5.689-4.249,7.112-6.842l1.675,2.989
						c-1.729,2.538-4.304,4.789-7.293,6.5c-1.836,1.026-4.482,1.962-6.031,2.214l-1.639-2.881
						C402.023,248.826,404.13,248.286,406.164,247.188z M407.893,239.031l-1.62,2.413c-1.08-0.721-2.917-1.891-4.178-2.593
						l1.585-2.413C404.939,237.123,406.866,238.329,407.893,239.031z M413.187,239.607l-1.854,0.792
						c-0.576-1.242-0.864-1.836-1.566-2.826l1.8-0.738C412.106,237.645,412.79,238.797,413.187,239.607z M415.797,238.617
						l-1.836,0.811c-0.631-1.242-0.973-1.765-1.675-2.719l1.837-0.757C414.717,236.727,415.365,237.843,415.797,238.617z"/>
				</g>
				<g id="づ_7_">
					<path class="st0" d="M424.108,240.418c1.297-0.396,5.023-1.675,7.688-1.675c3.403,0,6.068,1.944,6.068,5.456
						c0,3.942-3.655,6.859-10.462,7.184l-1.26-2.898c4.951-0.09,8.57-1.495,8.57-4.34c0-1.584-1.026-2.755-3.043-2.755
						c-2.503,0-6.554,1.693-8.696,2.647l-1.225-3.043C422.416,240.868,423.461,240.598,424.108,240.418z M436.73,238.671
						l-1.711,0.721c-0.378-0.738-0.899-1.801-1.386-2.503l1.692-0.685C435.776,236.871,436.406,238.041,436.73,238.671z
						 M438.963,237.789l-1.692,0.72c-0.36-0.738-0.937-1.8-1.422-2.484l1.692-0.685
						C438.009,236.024,438.657,237.177,438.963,237.789z"/>
				</g>
				<g id="く_7_">
					<path class="st0" d="M455.234,239.428c-1.135,0.846-3.386,2.574-4.52,3.564c-0.883,0.757-0.847,0.919,0.018,1.692
						c1.188,1.026,4.735,3.781,6.536,5.492l-2.557,2.358c-0.576-0.647-1.17-1.278-1.765-1.872c-0.99-1.045-3.583-3.259-5.222-4.664
						c-1.836-1.584-1.729-2.664,0.181-4.23c1.44-1.171,3.763-3.079,4.969-4.231c0.612-0.595,1.261-1.225,1.585-1.711l2.539,2.251
						C456.332,238.563,455.721,239.031,455.234,239.428z"/>
				</g>
				<g id="り_7_">
					<path class="st0" d="M471.323,239.302c0.937-1.135,2.341-2.251,4.214-2.251c2.574,0,4.646,2.484,4.646,6.554
						c0,5.149-3.098,7.688-8.049,8.606l-1.656-2.538c4.051-0.631,6.733-1.801,6.733-6.068c0-2.736-0.918-3.997-2.196-3.997
						c-2.053,0-3.799,3.151-3.799,5.527c0,0.379,0.018,0.937,0.107,1.729l-2.683,0.181c-0.107-0.702-0.233-1.854-0.233-3.079
						c0-1.675,0.18-3.655,0.468-5.744c0.09-0.756,0.144-1.584,0.144-2.07l2.972,0.126
						C471.81,236.907,471.432,238.438,471.323,239.302z"/>
				</g>
			</g>
		</g>
	</g>
	<g>
		<g>
			<g id="L_7_">
				<path class="st1" d="M116.958,132.256c0-1.32,0.88-2.2,2.2-2.2h2.2c1.32,0,2.145,0.88,2.145,2.2v30.631h14.683
					c1.32,0,2.2,0.88,2.2,2.199v1.155c0,1.319-0.88,2.199-2.2,2.199h-19.027c-1.32,0-2.2-0.88-2.2-2.199V132.256z"/>
			</g>
			<g id="I_7_">
				<path class="st1" d="M154.743,132.256c0-1.32,0.88-2.2,2.2-2.2h2.2c1.32,0,2.145,0.88,2.145,2.2v33.985
					c0,1.319-0.825,2.199-2.145,2.199h-2.2c-1.32,0-2.2-0.88-2.2-2.199V132.256z"/>
			</g>
			<g id="G_7_">
				<path class="st1" d="M176.797,143.584c0-9.129,5.334-14.243,14.078-14.243c3.85,0,6.599,0.55,8.799,1.045
					c1.54,0.44,2.035,1.265,1.705,2.694l-0.275,1.155c-0.275,1.265-1.375,1.814-2.694,1.484c-1.705-0.385-3.629-0.824-6.709-0.824
					c-5.609,0-8.139,2.97-8.139,9.293v10.174c0,6.27,2.53,9.239,8.139,9.239c2.64,0,4.509-0.44,6.599-0.936v-10.833
					c0-1.32,0.715-2.255,2.035-2.365l2.365-0.164c1.32-0.11,1.979,0.715,1.979,2.034v13.309c0,1.319-0.99,2.475-2.254,2.805
					c-2.64,0.659-6.654,1.704-11.549,1.704c-8.744,0-14.078-5.004-14.078-14.188V143.584z"/>
			</g>
			<g id="H_15_">
				<path class="st1" d="M220.632,132.256c0-1.32,0.88-2.2,2.2-2.2h2.2c1.32,0,2.145,0.88,2.145,2.2v13.748h14.793v-13.748
					c0-1.32,0.88-2.2,2.2-2.2h2.2c1.32,0,2.2,0.88,2.2,2.2v33.985c0,1.319-0.88,2.199-2.2,2.199h-2.2c-1.32,0-2.2-0.88-2.2-2.199
					v-14.793h-14.793v14.793c0,1.319-0.825,2.199-2.145,2.199h-2.2c-1.32,0-2.2-0.88-2.2-2.199V132.256z"/>
			</g>
			<g id="T_7_">
				<path class="st1" d="M272.111,135.61h-7.259c-1.32,0-2.2-0.88-2.2-2.2v-1.154c0-1.32,0.88-2.2,2.2-2.2h21.117
					c1.32,0,2.146,0.88,2.146,2.2v1.154c0,1.32-0.825,2.2-2.146,2.2h-7.313v30.631c0,1.319-0.825,2.199-2.145,2.199h-2.2
					c-1.319,0-2.199-0.88-2.199-2.199V135.61z"/>
			</g>
			<g id="H_14_">
				<path class="st1" d="M302.251,132.256c0-1.32,0.88-2.2,2.199-2.2h2.2c1.319,0,2.145,0.88,2.145,2.2v13.748h14.793v-13.748
					c0-1.32,0.88-2.2,2.2-2.2h2.199c1.32,0,2.2,0.88,2.2,2.2v33.985c0,1.319-0.88,2.199-2.2,2.199h-2.199
					c-1.32,0-2.2-0.88-2.2-2.199v-14.793h-14.793v14.793c0,1.319-0.825,2.199-2.145,2.199h-2.2c-1.319,0-2.199-0.88-2.199-2.199
					V132.256z"/>
			</g>
			<g id="O_7_">
				<path class="st1" d="M345.646,145.454c0-9.404,5.555-16.113,15.068-16.113s15.067,6.709,15.067,16.113v7.589
					c0,9.459-5.554,16.112-15.067,16.112s-15.068-6.653-15.068-16.112V145.454z M360.714,163.602c6.544,0,8.358-5.17,8.358-11.164
					v-6.379c0-5.939-1.814-11.163-8.358-11.163c-6.489,0-8.359,5.224-8.359,11.163v6.379
					C352.355,158.432,354.225,163.602,360.714,163.602z"/>
			</g>
			<g id="U_7_">
				<path class="st1" d="M390.416,132.256c0-1.32,0.88-2.2,2.2-2.2h2.199c1.32,0,2.145,0.88,2.145,2.2v22.821
					c0,4.18,2.2,8.524,7.864,8.524c5.555,0,7.81-4.345,7.81-8.524v-22.821c0-1.32,0.879-2.2,2.199-2.2h2.199
					c1.32,0,2.2,0.88,2.2,2.2v21.887c0,9.403-5.114,15.013-14.408,15.013c-9.184,0-14.408-5.554-14.408-15.013V132.256z"/>
			</g>
			<g id="S_7_">
				<path class="st1" d="M433.7,163.711c0.33-1.43,1.32-1.814,2.585-1.43c1.43,0.385,4.345,1.32,7.699,1.32
					c4.399,0,6.269-2.255,6.269-5.444c0-8.139-16.607-5.444-16.607-18.258c0-6.654,5.389-10.559,12.758-10.559
					c3.354,0,5.83,0.77,7.369,1.265c1.265,0.44,1.925,1.43,1.485,2.805l-0.33,1.1c-0.44,1.21-1.485,1.76-2.805,1.32
					c-1.375-0.44-3.3-0.935-5.72-0.935c-3.904,0-5.884,1.925-5.884,5.004c0,7.149,16.607,5.444,16.607,18.258
					c0,6.654-5.224,10.998-13.143,10.998c-3.685,0-6.71-0.824-8.909-1.484c-1.375-0.385-1.979-1.265-1.649-2.694L433.7,163.711z"/>
			</g>
			<g id="E_7_">
				<path class="st1" d="M470.77,140.284c0-6.159,3.85-10.229,11.658-10.229h8.194c1.319,0,2.199,0.88,2.199,2.2v1.154
					c0,1.32-0.88,2.2-2.199,2.2h-8.139c-3.96,0-5.17,1.814-5.17,5.114v5.279h11.658c1.32,0,2.2,0.88,2.2,2.199v1.155
					c0,1.319-0.88,2.145-2.2,2.145h-11.658v6.324c0,3.354,1.21,5.06,5.17,5.06h8.358c1.32,0,2.2,0.88,2.2,2.199v1.155
					c0,1.319-0.88,2.199-2.2,2.199h-8.414c-7.754,0-11.658-4.069-11.658-10.174V140.284z"/>
			</g>
		</g>
	</g>
	<g>
		<g>
			<g id="サ_7_">
				<path class="st1" d="M110.8,58.477h-4.254v1.012c0,4.807-1.609,8.992-7.221,11.659c-0.528-0.599-1.402-1.472-2.115-2.001
					c5.266-2.368,6.415-5.863,6.415-9.635v-1.035h-5.933v5.197h-2.897v-5.197h-3.978v-2.759h3.978v-4.599l3.588,0.229
					c-0.023,0.229-0.253,0.506-0.69,0.575v3.794h5.933V50.82l3.61,0.207c-0.022,0.252-0.253,0.459-0.689,0.528v4.162h4.254V58.477z"
					/>
			</g>
			<g id="_x30FC__25_">
				<path class="st1" d="M117.728,59.167h19.2v2.897h-18.234c-0.139,0.23-0.46,0.391-0.782,0.438L117.728,59.167z"/>
			</g>
			<g id="バ_7_">
				<path class="st1" d="M152.202,54.798c-0.068,0.207-0.275,0.392-0.667,0.437c-0.851,5.404-2.69,11.13-5.312,14.625
					c-0.805-0.552-1.908-1.127-2.828-1.494c2.575-3.242,4.346-8.577,4.989-14.326L152.202,54.798z M161.745,69.722
					c-1.034-3.726-3.403-10.026-5.656-14.556l2.759-1.288c2.3,4.231,4.783,10.485,5.979,14.511L161.745,69.722z M159.791,50.475
					c0.92,0.896,1.954,2.3,2.483,3.22l-1.357,0.989c-0.528-0.897-1.701-2.484-2.506-3.266L159.791,50.475z M162.987,49.67
					c0.896,0.92,1.954,2.254,2.529,3.174l-1.403,1.012c-0.506-0.92-1.701-2.414-2.483-3.242L162.987,49.67z"/>
			</g>
			<g id="_x30FC__24_">
				<path class="st1" d="M170.627,59.167h19.201v2.897h-18.235c-0.138,0.23-0.46,0.391-0.781,0.438L170.627,59.167z"/>
			</g>
			<g id="代_7_">
				<path class="st1" d="M201.926,59.975c-0.792,1.08-1.608,2.088-2.448,2.977c-0.288-0.744-1.056-2.257-1.512-2.953
					c2.304-2.279,4.681-6.336,6.072-10.272l3.36,1.151c-0.144,0.265-0.384,0.336-0.696,0.289c-0.647,1.535-1.368,3.096-2.184,4.584
					l0.96,0.264c-0.048,0.217-0.24,0.385-0.648,0.456v15.817h-2.904V59.975z M220.983,58.799l-6.841,0.672
					c0.744,5.447,2.161,9.793,3.648,9.816c0.553,0,0.864-1.271,0.984-4.2c0.624,0.672,1.608,1.416,2.4,1.728
					c-0.48,4.441-1.44,5.473-3.648,5.473c-3.504-0.023-5.448-5.616-6.36-12.505l-5.16,0.504l-0.265-2.761l5.137-0.504
					c-0.216-2.375-0.313-4.824-0.336-7.2l3.792,0.192c-0.023,0.287-0.24,0.432-0.72,0.504c-0.048,2.04,0.048,4.152,0.24,6.217
					l6.84-0.672L220.983,58.799z M217.071,49.869c1.32,1.176,2.904,2.832,3.624,4.009l-2.328,1.487
					c-0.647-1.127-2.16-2.904-3.48-4.152L217.071,49.869z"/>
			</g>
			<g id="不_7_">
				<path class="st1" d="M242.99,60.646l1.824-1.801c2.521,1.537,6.192,3.912,7.969,5.521l-2.304,2.424
					c-1.561-1.584-4.896-3.984-7.489-5.664v11.16h-3V60.574c-2.185,2.496-4.849,4.776-7.896,6.457
					c-0.408-0.721-1.344-1.873-1.896-2.496c4.561-2.305,8.377-6.385,10.609-10.369h-9.745v-2.904h21.025v2.904h-7.681
					c-0.504,0.96-1.08,1.92-1.704,2.88l0.96,0.216c-0.048,0.217-0.239,0.408-0.672,0.457V60.646z"/>
			</g>
			<g id="要_7_">
				<path class="st1" d="M283.646,65.207h-4.729c-0.624,1.128-1.344,2.088-2.208,2.88c2.328,0.647,4.44,1.296,6.049,1.872
					l-1.729,2.353c-1.848-0.744-4.296-1.561-7.032-2.353c-2.688,1.344-6.24,1.992-10.993,2.353
					c-0.216-0.816-0.672-1.849-1.104-2.473c3.168-0.12,5.808-0.407,7.944-0.983c-0.769-0.192-1.561-0.36-2.328-0.553l-0.265,0.36
					l-2.784-0.864c0.576-0.721,1.225-1.632,1.896-2.592h-4.992v-2.328h6.553l1.104-1.729h-5.616v-6.793h5.089V52.99h-6.961v-2.497
					h21.938v2.497h-7.152v1.367h5.28v6.793h-9.192l0.359,0.096c-0.096,0.217-0.288,0.313-0.72,0.288l-0.84,1.345h12.433V65.207z
					 M266.125,56.638v2.257h2.377v-2.257H266.125z M269.678,65.207l-0.696,1.031c1.513,0.313,3.048,0.672,4.561,1.033
					c0.816-0.553,1.512-1.248,2.088-2.064H269.678z M271.214,52.99v1.367h2.376V52.99H271.214z M271.214,58.895h2.376v-2.257h-2.376
					V58.895z M278.75,56.638h-2.424v2.257h2.424V56.638z"/>
			</g>
			<g id="_xD7__7_">
				<path class="st1" d="M318.233,67.641l-1.872,1.872l-6.683-6.683l-6.683,6.683l-1.871-1.872l6.682-6.682l-6.682-6.683
					l1.871-1.872l6.683,6.682l6.683-6.682l1.872,1.872l-6.683,6.683L318.233,67.641z"/>
			</g>
			<g id="シ_7_">
				<path class="st1" d="M337.244,57.021c2.137,0.553,4.561,1.44,6.145,2.232l-1.296,2.617c-1.56-0.793-4.08-1.801-6.145-2.354
					L337.244,57.021z M337.916,68.207c7.369-2.28,12.722-6.192,16.01-13.297c0.601,0.527,1.992,1.56,2.616,1.968
					c-3.265,6.841-9.121,11.401-16.009,13.729c0.048,0.24-0.072,0.504-0.385,0.648L337.916,68.207z M340.125,51.117
					c2.136,0.625,4.536,1.512,6.192,2.377l-1.488,2.544c-1.68-0.937-3.937-1.896-6.049-2.544L340.125,51.117z"/>
			</g>
			<g id="ン_7_">
				<path class="st1" d="M366.306,52.338c2.3,0.713,5.059,1.932,6.737,3.035l-1.518,2.621c-1.655-1.104-4.369-2.368-6.576-3.15
					L366.306,52.338z M365.523,67.905c7.75-2.392,13.085-6.898,15.752-13.222c0.851,0.689,1.84,1.241,2.69,1.701
					c-2.852,6.277-8.348,11.176-15.959,13.865c-0.046,0.254-0.184,0.506-0.391,0.599L365.523,67.905z"/>
			</g>
			<g id="グ_7_">
				<path class="st1" d="M409.404,55.925c-0.093,0.185-0.322,0.345-0.507,0.437c-2.69,7.91-6.277,12.05-12.187,15.039
					c-0.46-0.667-1.312-1.633-2.139-2.23c5.427-2.576,8.738-6.186,10.577-11.728h-6.507c-1.173,1.747-2.829,3.61-4.737,5.104
					c-0.552-0.574-1.587-1.379-2.346-1.862c3.013-2.069,5.749-5.956,7.105-9.956l3.656,0.85c-0.092,0.254-0.391,0.392-0.735,0.414
					c-0.392,0.828-0.92,1.979-1.334,2.736h6.323l0.438-0.184L409.404,55.925z M405.908,50.152c1.012,0.782,2.254,2.094,2.921,2.967
					l-1.311,1.15c-0.599-0.874-1.955-2.3-2.829-3.013L405.908,50.152z M409.564,49.532c1.012,0.805,2.23,2.069,2.897,2.966
					l-1.333,1.104c-0.529-0.781-1.84-2.184-2.783-2.966L409.564,49.532z"/>
			</g>
			<g id="ル_7_">
				<path class="st1" d="M424.495,54.385c-0.023,0.252-0.23,0.459-0.598,0.506c-0.115,6.6-0.736,11.934-3.887,16.188
					c-0.667-0.437-1.771-1.08-2.575-1.494c3.059-3.564,3.473-9.543,3.473-15.43L424.495,54.385z M430.404,66.342
					c3.082-1.702,4.968-4.807,6.002-8.371c0.598,0.506,1.909,1.242,2.599,1.588c-1.655,4.76-4.346,8.117-9.221,10.531
					c-0.115,0.23-0.345,0.459-0.529,0.574l-2.161-2.529l0.367-0.482v-16.35l3.588,0.184c-0.046,0.254-0.207,0.483-0.645,0.553
					V66.342z"/>
			</g>
			<g id="ペ_8_">
				<path class="st1" d="M444.438,61.973c1.679-1.701,4.829-5.289,6.323-6.945c0.759-0.805,1.563-1.172,2.322-1.172
					c0.782,0,1.61,0.482,2.461,1.219c2.736,2.414,7.611,7.657,10.67,11.52l-2.461,2.369c-2.759-3.909-7.657-9.404-9.543-11.222
					c-0.482-0.437-0.759-0.69-1.034-0.69c-0.253,0.023-0.529,0.277-0.943,0.713c-0.781,0.92-3.564,4.301-5.013,5.957
					c0.046,0.252-0.046,0.574-0.299,0.805L444.438,61.973z M461.799,50.566c1.379,0,2.483,1.104,2.483,2.484
					c0,1.379-1.104,2.506-2.483,2.506c-1.38,0-2.507-1.127-2.507-2.506C459.292,51.625,460.465,50.566,461.799,50.566z
					 M463.408,53.051c0-0.897-0.713-1.633-1.609-1.633c-0.897,0-1.633,0.735-1.633,1.633c0,0.896,0.735,1.633,1.633,1.633
					C462.741,54.684,463.408,53.901,463.408,53.051z"/>
			</g>
			<g id="_x30FC__23_">
				<path class="st1" d="M472.244,59.167h19.2v2.897H473.21c-0.139,0.23-0.46,0.391-0.782,0.438L472.244,59.167z"/>
			</g>
			<g id="ジ_8_">
				<path class="st1" d="M499.752,57.281c2.047,0.529,4.369,1.38,5.887,2.139l-1.241,2.506c-1.495-0.758-3.909-1.725-5.887-2.253
					L499.752,57.281z M500.396,67.997c7.013-2.161,12.21-5.933,15.337-12.739c0.575,0.506,1.886,1.494,2.507,1.886
					c-3.127,6.554-8.761,10.945-15.338,13.153c0.046,0.229-0.069,0.482-0.345,0.621L500.396,67.997z M502.512,51.625
					c2.046,0.598,4.346,1.448,5.933,2.276l-1.426,2.438c-1.609-0.897-3.771-1.817-5.795-2.438L502.512,51.625z M512.975,50.889
					c0.92,0.828,2.092,2.207,2.713,3.196l-1.402,1.058c-0.529-0.896-1.816-2.482-2.622-3.266L512.975,50.889z M516.47,49.602
					c0.92,0.851,2.093,2.23,2.713,3.15l-1.38,1.057c-0.574-0.92-1.816-2.414-2.621-3.195L516.47,49.602z"/>
			</g>
		</g>
	</g>
</g>
</svg>
