<svg id="building" xmlns="http://www.w3.org/2000/svg" width="36.438" height="38.646" viewBox="0 0 36.438 38.646">
  <g id="building-2" data-name="building">
    <path id="Shape" d="M36.438,38.646H0V0H18.771V12.135H36.438Z" fill="#464036"/>
    <path id="Shape-2" data-name="Shape" d="M16.569,33.126H14.361V6.625h2.208v26.5Zm-6.618-3.3H0V27.6H9.95v2.224Zm18.778-.017H25.416v-3.3h3.312v3.3Zm-5.521,0H19.895v-3.3h3.312v3.3ZM9.95,24.309H0V22.084H9.95v2.224ZM28.728,24.3H25.416V20.968h3.312V24.3Zm-5.521,0H19.895V20.968h3.312V24.3ZM9.95,18.788H0V16.563H9.95v2.224Zm18.778-.031H25.416v-3.3l3.312,0v3.3Zm-5.521,0H19.895v-3.3l3.312,0v3.3ZM9.95,13.267H0V11.043H9.95v2.223Zm18.778-.016H25.416V9.943h3.312V13.25Zm-5.521,0H19.895V9.942h3.312V13.25ZM9.95,7.729H0V5.521H9.95V7.728Zm0-5.52H0V0H9.95V2.208Z" transform="translate(4.41 5.52)" fill="#e4e1db"/>
  </g>
</svg>
