<svg id="calculator" xmlns="http://www.w3.org/2000/svg" width="27" height="38" viewBox="0 0 27 38">
  <g id="calculator-2" data-name="calculator">
    <path id="Shape" d="M27,38H0V0H27Z" fill="#464036"/>
    <path id="Shape-2" data-name="Shape" d="M16.5,30A2.5,2.5,0,1,1,19,27.5,2.5,2.5,0,0,1,16.5,30Zm-7,0A2.5,2.5,0,1,1,12,27.5,2.5,2.5,0,0,1,9.5,30Zm-7,0A2.5,2.5,0,1,1,5,27.5,2.5,2.5,0,0,1,2.5,30Zm14-7A2.5,2.5,0,1,1,19,20.5,2.5,2.5,0,0,1,16.5,23Zm-7,0A2.5,2.5,0,1,1,12,20.5,2.5,2.5,0,0,1,9.5,23Zm-7,0A2.5,2.5,0,1,1,5,20.5,2.5,2.5,0,0,1,2.5,23Zm14-7A2.5,2.5,0,1,1,19,13.5,2.5,2.5,0,0,1,16.5,16Zm-7,0A2.5,2.5,0,1,1,12,13.5,2.5,2.5,0,0,1,9.5,16Zm-7,0A2.5,2.5,0,1,1,5,13.5,2.5,2.5,0,0,1,2.5,16ZM19,7H0V0H19V7Z" transform="translate(4 4)" fill="#e4e1db"/>
  </g>
</svg>
