<?xml version="1.0" encoding="utf-8"?>
<!-- Generator: Adobe Illustrator 23.1.0, SVG Export Plug-In . SVG Version: 6.00 Build 0)  -->
<svg version="1.1" id="logo" xmlns="http://www.w3.org/2000/svg" xmlns:xlink="http://www.w3.org/1999/xlink" x="0px" y="0px"
	 width="152.83px" height="16.22px" viewBox="0 0 152.83 16.22" style="enable-background:new 0 0 152.83 16.22;"
	 xml:space="preserve">
<style type="text/css">
	.st0{enable-background:new;}
	.st1{fill:#fff;}
</style>
<g class="st0">
	<path class="st1" d="M0,1.01c0-0.43,0.29-0.72,0.72-0.72h0.69c0.43,0,0.72,0.29,0.72,0.72v13.1h6.41c0.43,0,0.69,0.27,0.69,0.69
		v0.43c0,0.43-0.27,0.69-0.69,0.69H0.72C0.29,15.93,0,15.66,0,15.23V1.01z"/>
	<path class="st1" d="M15.41,1.01c0-0.43,0.29-0.72,0.72-0.72h0.69c0.43,0,0.72,0.29,0.72,0.72v14.22c0,0.43-0.29,0.69-0.72,0.69
		h-0.69c-0.43,0-0.72-0.27-0.72-0.69V1.01z"/>
	<path class="st1" d="M24.12,5.8c0-3.72,2.08-5.8,5.64-5.8c1.57,0,2.76,0.25,3.7,0.49c0.47,0.11,0.65,0.38,0.54,0.85l-0.09,0.45
		c-0.09,0.38-0.45,0.56-0.9,0.45c-0.78-0.2-1.72-0.4-3.05-0.4c-2.73,0-3.67,1.66-3.67,4.21v4.14c0,2.58,0.94,4.21,3.67,4.21
		c1.17,0,2.13-0.22,3.16-0.49V9.25c0-0.43,0.22-0.74,0.67-0.78L34.5,8.4c0.45-0.04,0.67,0.22,0.67,0.65v5.56
		c0,0.42-0.34,0.78-0.76,0.9c-1.14,0.31-2.76,0.72-4.64,0.72c-3.56,0-5.64-2.04-5.64-5.78V5.8z"/>
	<path class="st1" d="M42,1.01c0-0.43,0.29-0.72,0.72-0.72h0.69c0.43,0,0.72,0.29,0.72,0.72v5.98h6.83V1.01
		c0-0.43,0.27-0.72,0.69-0.72h0.72c0.43,0,0.69,0.29,0.69,0.72v14.22c0,0.43-0.27,0.69-0.69,0.69h-0.72c-0.43,0-0.69-0.27-0.69-0.69
		V8.8h-6.83v6.43c0,0.43-0.29,0.69-0.72,0.69h-0.69c-0.43,0-0.72-0.27-0.72-0.69V1.01z"/>
	<path class="st1" d="M63.21,2.13h-3.36c-0.43,0-0.72-0.29-0.72-0.72v-0.4c0-0.43,0.29-0.72,0.72-0.72h8.85
		c0.43,0,0.72,0.29,0.72,0.72v0.4c0,0.43-0.29,0.72-0.72,0.72h-3.36v13.1c0,0.43-0.29,0.69-0.72,0.69h-0.69
		c-0.43,0-0.72-0.27-0.72-0.69V2.13z"/>
	<path class="st1" d="M75.46,1.01c0-0.43,0.29-0.72,0.72-0.72h0.69c0.43,0,0.72,0.29,0.72,0.72v5.98h6.83V1.01
		c0-0.43,0.27-0.72,0.69-0.72h0.72c0.43,0,0.69,0.29,0.69,0.72v14.22c0,0.43-0.27,0.69-0.69,0.69h-0.72c-0.43,0-0.69-0.27-0.69-0.69
		V8.8h-6.83v6.43c0,0.43-0.29,0.69-0.72,0.69h-0.69c-0.43,0-0.72-0.27-0.72-0.69V1.01z"/>
	<path class="st1" d="M93.11,6.45c0-3.81,2.24-6.45,6-6.45s5.98,2.64,5.98,6.45v3.32c0,3.88-2.22,6.45-5.98,6.45s-6-2.58-6-6.45
		V6.45z M99.12,14.4c2.93,0,3.81-2.26,3.81-4.86V6.68c0-2.58-0.87-4.84-3.81-4.84c-2.93,0-3.83,2.26-3.83,4.84v2.87
		C95.29,12.14,96.18,14.4,99.12,14.4z"/>
	<path class="st1" d="M111.35,1.01c0-0.43,0.29-0.72,0.72-0.72h0.69c0.43,0,0.72,0.29,0.72,0.72v9.56c0,1.93,1.05,3.83,3.58,3.83
		c2.51,0,3.61-1.9,3.61-3.83V1.01c0-0.43,0.27-0.72,0.69-0.72h0.72c0.43,0,0.7,0.29,0.7,0.72v9.16c0,3.83-2.04,6.05-5.71,6.05
		c-3.63,0-5.71-2.22-5.71-6.05V1.01z"/>
	<path class="st1" d="M128.95,14.29c0.09-0.45,0.43-0.58,0.85-0.47c0.72,0.2,1.9,0.58,3.27,0.58c2.04,0,2.91-1.08,2.91-2.6
		c0-3.56-7.03-2.51-7.03-7.57c0-2.69,2.06-4.23,4.97-4.23c1.3,0,2.38,0.31,3.05,0.56c0.43,0.13,0.63,0.45,0.49,0.92l-0.11,0.36
		c-0.13,0.43-0.49,0.56-0.92,0.43c-0.61-0.18-1.48-0.43-2.51-0.43c-1.81,0-2.75,0.9-2.75,2.4c0,3.18,7.03,2.46,7.03,7.57
		c0,2.67-1.99,4.41-5.13,4.41c-1.5,0-2.73-0.34-3.67-0.6c-0.43-0.13-0.65-0.4-0.54-0.9L128.95,14.29z"/>
	<path class="st1" d="M144.07,4.3c0-2.42,1.48-4.01,4.55-4.01h3.43c0.43,0,0.7,0.29,0.7,0.72v0.4c0,0.43-0.27,0.72-0.7,0.72h-3.4
		c-1.9,0-2.46,0.87-2.46,2.31v2.58h5.2c0.43,0,0.69,0.27,0.69,0.69v0.4c0,0.43-0.27,0.72-0.69,0.72h-5.2v2.98
		c0,1.43,0.56,2.31,2.46,2.31h3.49c0.43,0,0.69,0.27,0.69,0.69v0.43c0,0.43-0.27,0.69-0.69,0.69h-3.52c-3.05,0-4.55-1.59-4.55-3.99
		V4.3z"/>
</g>
</svg>
