<svg version="1.1" id="レイヤー_1" xmlns="http://www.w3.org/2000/svg" x="0" y="0" width="610" height="316" style="enable-background:new 0 0 610 316" xml:space="preserve"><style>.st0{fill:#464036}.st1{fill:#fff}</style><path class="st0" d="M0 0h610v316H0z"/><path class="st1" d="M90 222h430v44H90z"/><path class="st0" d="M136.317 240.508h-6.5v-2.034h6.5v2.034zm2.287 4.411h2.376c-.108 3.728-.558 6.266-3.979 7.742-.216-.521-.72-1.296-1.188-1.818v.792h-3.133v.685h-2.106v-6.248h5.239v4.34c2.197-.919 2.593-2.341 2.719-4.556H136.3v-3.637h10.353v3.637h-2.413v-1.62h-5.636v.683zm-2.845-1.927h-5.114v-1.944h5.114v1.944zm-5.114.54h5.114v1.945h-5.114v-1.945zm5.06-5.581h-4.952v-1.944h4.952v1.944zm-2.017 10.137h-1.008v1.53h1.008v-1.53zm6.41-9.309h-3.511v-2.106h3.511v-1.207h2.593v1.207h3.799v2.106h-3.799v.738h3.259v2.089h-8.769v-2.089h2.917v-.738zm4.663 11.47c.234 0 .306-.288.342-2.251.45.396 1.494.792 2.125.954-.198 2.791-.792 3.547-2.197 3.547h-1.044c-1.801 0-2.179-.738-2.179-2.862v-4.699h2.413v4.681c0 .576.018.631.216.631h.324z" id="読_7_"/><path class="st0" d="M163.786 238.329c-.937 1.314-1.981 3.223-2.845 4.735a6.136 6.136 0 0 1 1.711-.234c1.44 0 2.214.9 2.305 2.449.036.648-.018 2.125.09 2.809.072.595.504.811.99.811 1.314 0 2.161-1.765 2.701-4.178l2.377 1.927c-.937 3.205-2.683 5.275-5.546 5.275-2.035 0-3.133-1.188-3.223-2.629-.072-.918-.072-2.431-.126-3.024-.054-.54-.342-.864-.9-.864-1.098 0-1.927 1.135-2.539 2.61-.433 1.045-.973 2.989-1.261 3.979l-3.097-1.044c1.332-3.583 4.879-10.911 5.833-12.622.234-.504.63-1.188 1.008-2.07l3.097 1.242c-.197.252-.378.559-.575.828z" id="ん_7_"/><path class="st0" d="M178.619 237.847c1.786-.152 4.654-.38 8.131-.684 1.9-.152 4.142-.285 5.528-.342l.019 2.963c-.988.02-2.603.02-3.647.229-2.052.456-3.818 2.679-3.818 4.939 0 2.792 2.622 3.894 5.908 4.084l-1.083 3.191c-4.236-.323-7.865-2.621-7.865-6.668 0-2.603 1.387-4.616 2.413-5.547-1.634.171-4.978.551-7.257 1.063l-.285-3.135a31.32 31.32 0 0 0 1.956-.093zm12.463 6.079-1.691.741c-.513-1.103-.836-1.729-1.444-2.603l1.653-.685c.475.704 1.14 1.844 1.482 2.547zm2.241-.988-1.672.798c-.551-1.083-.912-1.672-1.539-2.527l1.634-.74a29.624 29.624 0 0 1 1.577 2.469z" id="で_7_"/><path class="st0" d="M207.931 238.095c-.036.234-.09.612-.162 1.117 1.225-.019 2.359-.127 3.079-.253l-.09 2.593c-.99.108-1.908.181-3.349.181-.09.647-.162 1.332-.252 1.998h.018c1.026 0 2.413-.09 3.529-.216l-.072 2.575c-.882.09-1.908.162-2.989.162h-.738a12.62 12.62 0 0 0-.054 1.044c0 1.351.864 1.998 2.467 1.998 2.395 0 3.565-1.134 3.565-2.395 0-1.224-.685-2.286-1.783-3.385l3.061-.648c1.17 1.585 1.692 2.863 1.692 4.394 0 2.737-2.467 4.88-6.626 4.88-3.061 0-5.078-1.314-5.078-4.376 0-.396.036-.99.108-1.674a21.584 21.584 0 0 1-3.259-.559l.144-2.629c1.134.378 2.287.595 3.403.702.072-.666.162-1.351.252-2.017a20.713 20.713 0 0 1-3.421-.647l.126-2.503c1.008.342 2.287.558 3.583.666.054-.433.09-.847.108-1.188.072-.954.072-1.332.036-1.782l3.061.162c-.179.756-.269 1.296-.359 1.8z" id="も_7_"/><path class="st0" d="M227.298 243.73a9.07 9.07 0 0 1 4.987-1.458c3.385 0 5.222 2.106 5.222 4.321 0 3.331-2.467 6.05-10.389 5.365l-.846-2.862c5.258.773 8.157-.36 8.157-2.557 0-1.026-.973-1.783-2.413-1.783-1.836 0-3.601.685-4.663 1.963-.36.432-.559.72-.738 1.116l-2.503-.612c.36-1.836.774-5.222.9-7.652l2.935.396c-.253.883-.559 2.792-.649 3.763zm7.58-6.157-.648 2.683c-1.891-.252-5.96-1.116-7.382-1.477l.684-2.61c1.801.558 5.78 1.224 7.346 1.404z" id="ら_7_"/><path class="st0" d="M255.921 243.083c-.9.738-2.395 2.106-2.683 2.431.144 0 .468.09.684.197.414.198.685.541.918 1.188.162.45.324 1.009.468 1.423.144.486.522.756 1.098.756 1.495 0 2.665-.126 3.601-.288l-.18 2.845c-.738.126-2.701.253-3.619.253-1.837 0-2.791-.396-3.259-1.549-.198-.54-.378-1.261-.486-1.675-.198-.648-.576-.828-.882-.828-.288 0-.648.306-1.081.774-.594.63-1.603 1.765-2.971 3.493l-2.557-1.783c.378-.323.882-.756 1.44-1.296 1.044-1.063 4.033-4.016 5.6-5.726-1.17.018-2.827.162-3.817.252-.648.054-1.242.162-1.621.234l-.252-3.007c.414.035 1.134.071 1.836.071.756 0 4.771-.126 6.356-.324.342-.035.9-.144 1.099-.216l1.584 1.783c-.556.38-.898.668-1.276.992zm.486-6.194-.342 2.557c-1.944-.144-5.419-.54-7.544-.864l.414-2.521c2.052.341 5.527.702 7.472.828z" id="え_7_"/><path class="st0" d="M270.714 237.015c.972 0 4.573-.054 5.636-.144.864-.072 1.368-.145 1.603-.217l1.35 1.927c-.468.288-.936.559-1.386.883-1.008.684-2.593 1.98-3.583 2.736.468-.09.828-.107 1.26-.107 3.097 0 5.528 1.98 5.528 4.699 0 2.809-2.035 5.275-6.698 5.275-2.539 0-4.645-1.188-4.645-3.169 0-1.585 1.44-3.062 3.493-3.062 2.197 0 3.601 1.279 3.907 2.989.72-.486 1.063-1.188 1.063-2.07 0-1.549-1.584-2.521-3.565-2.521-2.629 0-4.52 1.584-6.248 3.69l-1.98-2.053c1.152-.899 3.259-2.683 4.321-3.564 1.008-.828 2.683-2.125 3.547-2.899-.9.019-2.755.09-3.727.162-.54.036-1.188.09-1.621.162l-.09-2.826c.557.073 1.241.109 1.835.109zm3.151 12.568c.288 0 .558-.019.811-.036-.09-.99-.63-1.639-1.387-1.639-.594 0-.936.36-.936.72 0 .559.594.955 1.512.955z" id="る_7_"/><path class="st0" d="m290.604 249.366-2.358-1.603c1.206-1.17 2.593-3.061 3.349-4.627l2.484 1.17c-.864 1.622-2.521 4.016-3.475 5.06zm7.669-11.343v1.188h3.871c.559 0 1.441-.055 1.945-.127v2.846a23.983 23.983 0 0 0-1.927-.072h-3.89v8.174c0 1.099-.684 1.837-2.07 1.837-1.08 0-2.125-.036-3.133-.162l-.271-2.683c.757.144 1.531.198 1.963.198.45 0 .612-.145.63-.612.019-.504.019-5.941.019-6.752h-4.321c-.54 0-1.333.018-1.854.072v-2.863c.558.072 1.296.145 1.854.145h4.321v-1.207c0-.504-.09-1.387-.162-1.729h3.223c-.053.252-.198 1.261-.198 1.747zm6.717 9.777-2.557 1.404c-.811-1.62-2.053-3.763-2.881-4.861l2.376-1.296c.901 1.152 2.342 3.438 3.062 4.753z" id="ホ_7_"/><path class="st0" d="M314.399 242.362h9.562c.81 0 1.692-.09 2.214-.126v3.439c-.468-.019-1.476-.108-2.214-.108h-9.562c-1.026 0-2.376.054-3.114.108v-3.439c.72.054 2.233.126 3.114.126z" id="_x30FC__21_"/><path class="st0" d="M341.347 239.409c-.612 1.783-1.927 5.888-2.791 8.283a237.75 237.75 0 0 0 5.726-.631c-.576-1.206-1.17-2.305-1.71-3.043l2.736-1.116c1.297 1.999 3.062 5.492 3.926 7.58l-2.953 1.314a41.245 41.245 0 0 0-.792-1.998c-2.971.36-8.139.882-10.317 1.116-.45.054-1.206.162-1.801.234l-.504-3.188c.648 0 1.53 0 2.143-.018.09 0 .181 0 .271-.019 1.044-2.7 2.448-7.22 2.988-9.146.271-.954.379-1.603.469-2.269l3.457.702c-.272.597-.56 1.371-.848 2.199z" id="ム_7_"/><path class="st0" d="M356.069 244.055c.792-.792 2.106-2.431 3.403-3.979 1.134-1.35 2.322-1.548 3.816-.144a77.893 77.893 0 0 1 3.655 3.728c1.206 1.296 3.079 3.295 4.466 4.771l-2.413 2.592c-1.17-1.458-2.646-3.33-3.655-4.537-1.063-1.278-2.61-3.007-3.205-3.619-.521-.521-.918-.504-1.368.09-.63.829-1.765 2.485-2.448 3.457-.433.631-.883 1.314-1.225 1.837l-2.629-2.719c.577-.469 1.009-.883 1.603-1.477zm12.19-6.752c1.351 0 2.431 1.08 2.431 2.431s-1.08 2.413-2.431 2.413-2.413-1.063-2.413-2.413 1.062-2.431 2.413-2.431zm0 3.475a1.046 1.046 0 0 0 0-2.089 1.045 1.045 0 0 0 0 2.089z" id="ペ_10_"/><path class="st0" d="M380.819 242.362h9.562c.81 0 1.692-.09 2.214-.126v3.439c-.468-.019-1.476-.108-2.214-.108h-9.562c-1.026 0-2.376.054-3.114.108v-3.439c.72.054 2.233.126 3.114.126z" id="_x30FC__20_"/><path class="st0" d="m405.084 243.173-1.603 2.448c-1.099-.756-2.917-1.944-4.195-2.629l1.585-2.412c1.296.684 3.204 1.891 4.213 2.593zm1.08 4.015c3.097-1.71 5.689-4.249 7.112-6.842l1.675 2.989c-1.729 2.538-4.304 4.789-7.293 6.5-1.836 1.026-4.482 1.962-6.031 2.214l-1.639-2.881c2.035-.342 4.142-.882 6.176-1.98zm1.729-8.157-1.62 2.413c-1.08-.721-2.917-1.891-4.178-2.593l1.585-2.413c1.259.685 3.186 1.891 4.213 2.593zm5.294.576-1.854.792c-.576-1.242-.864-1.836-1.566-2.826l1.8-.738c.539.81 1.223 1.962 1.62 2.772zm2.61-.99-1.836.811c-.631-1.242-.973-1.765-1.675-2.719l1.837-.757c.594.775 1.242 1.891 1.674 2.665z" id="ジ_10_"/><path class="st0" d="M424.108 240.418c1.297-.396 5.023-1.675 7.688-1.675 3.403 0 6.068 1.944 6.068 5.456 0 3.942-3.655 6.859-10.462 7.184l-1.26-2.898c4.951-.09 8.57-1.495 8.57-4.34 0-1.584-1.026-2.755-3.043-2.755-2.503 0-6.554 1.693-8.696 2.647l-1.225-3.043c.668-.126 1.713-.396 2.36-.576zm12.622-1.747-1.711.721c-.378-.738-.899-1.801-1.386-2.503l1.692-.685c.451.667 1.081 1.837 1.405 2.467zm2.233-.882-1.692.72c-.36-.738-.937-1.8-1.422-2.484l1.692-.685c.468.684 1.116 1.837 1.422 2.449z" id="づ_7_"/><path class="st0" d="M455.234 239.428c-1.135.846-3.386 2.574-4.52 3.564-.883.757-.847.919.018 1.692 1.188 1.026 4.735 3.781 6.536 5.492l-2.557 2.358a43.977 43.977 0 0 0-1.765-1.872c-.99-1.045-3.583-3.259-5.222-4.664-1.836-1.584-1.729-2.664.181-4.23 1.44-1.171 3.763-3.079 4.969-4.231.612-.595 1.261-1.225 1.585-1.711l2.539 2.251a42.92 42.92 0 0 0-1.764 1.351z" id="く_7_"/><path class="st0" d="M471.323 239.302c.937-1.135 2.341-2.251 4.214-2.251 2.574 0 4.646 2.484 4.646 6.554 0 5.149-3.098 7.688-8.049 8.606l-1.656-2.538c4.051-.631 6.733-1.801 6.733-6.068 0-2.736-.918-3.997-2.196-3.997-2.053 0-3.799 3.151-3.799 5.527 0 .379.018.937.107 1.729l-2.683.181a21.435 21.435 0 0 1-.233-3.079c0-1.675.18-3.655.468-5.744.09-.756.144-1.584.144-2.07l2.972.126c-.181.629-.559 2.16-.668 3.024z" id="り_7_"/><path class="st1" d="M116.958 132.256c0-1.32.88-2.2 2.2-2.2h2.2c1.32 0 2.145.88 2.145 2.2v30.631h14.683c1.32 0 2.2.88 2.2 2.199v1.155c0 1.319-.88 2.199-2.2 2.199h-19.027c-1.32 0-2.2-.88-2.2-2.199v-33.985z" id="L_7_"/><path class="st1" d="M154.743 132.256c0-1.32.88-2.2 2.2-2.2h2.2c1.32 0 2.145.88 2.145 2.2v33.985c0 1.319-.825 2.199-2.145 2.199h-2.2c-1.32 0-2.2-.88-2.2-2.199v-33.985z" id="I_7_"/><path class="st1" d="M176.797 143.584c0-9.129 5.334-14.243 14.078-14.243 3.85 0 6.599.55 8.799 1.045 1.54.44 2.035 1.265 1.705 2.694l-.275 1.155c-.275 1.265-1.375 1.814-2.694 1.484-1.705-.385-3.629-.824-6.709-.824-5.609 0-8.139 2.97-8.139 9.293v10.174c0 6.27 2.53 9.239 8.139 9.239 2.64 0 4.509-.44 6.599-.936v-10.833c0-1.32.715-2.255 2.035-2.365l2.365-.164c1.32-.11 1.979.715 1.979 2.034v13.309c0 1.319-.99 2.475-2.254 2.805-2.64.659-6.654 1.704-11.549 1.704-8.744 0-14.078-5.004-14.078-14.188v-11.383z" id="G_7_"/><path class="st1" d="M220.632 132.256c0-1.32.88-2.2 2.2-2.2h2.2c1.32 0 2.145.88 2.145 2.2v13.748h14.793v-13.748c0-1.32.88-2.2 2.2-2.2h2.2c1.32 0 2.2.88 2.2 2.2v33.985c0 1.319-.88 2.199-2.2 2.199h-2.2c-1.32 0-2.2-.88-2.2-2.199v-14.793h-14.793v14.793c0 1.319-.825 2.199-2.145 2.199h-2.2c-1.32 0-2.2-.88-2.2-2.199v-33.985z" id="H_15_"/><path class="st1" d="M272.111 135.61h-7.259c-1.32 0-2.2-.88-2.2-2.2v-1.154c0-1.32.88-2.2 2.2-2.2h21.117c1.32 0 2.146.88 2.146 2.2v1.154c0 1.32-.825 2.2-2.146 2.2h-7.313v30.631c0 1.319-.825 2.199-2.145 2.199h-2.2c-1.319 0-2.199-.88-2.199-2.199V135.61z" id="T_7_"/><path class="st1" d="M302.251 132.256c0-1.32.88-2.2 2.199-2.2h2.2c1.319 0 2.145.88 2.145 2.2v13.748h14.793v-13.748c0-1.32.88-2.2 2.2-2.2h2.199c1.32 0 2.2.88 2.2 2.2v33.985c0 1.319-.88 2.199-2.2 2.199h-2.199c-1.32 0-2.2-.88-2.2-2.199v-14.793h-14.793v14.793c0 1.319-.825 2.199-2.145 2.199h-2.2c-1.319 0-2.199-.88-2.199-2.199v-33.985z" id="H_14_"/><path class="st1" d="M345.646 145.454c0-9.404 5.555-16.113 15.068-16.113s15.067 6.709 15.067 16.113v7.589c0 9.459-5.554 16.112-15.067 16.112s-15.068-6.653-15.068-16.112v-7.589zm15.068 18.148c6.544 0 8.358-5.17 8.358-11.164v-6.379c0-5.939-1.814-11.163-8.358-11.163-6.489 0-8.359 5.224-8.359 11.163v6.379c0 5.994 1.87 11.164 8.359 11.164z" id="O_7_"/><path class="st1" d="M390.416 132.256c0-1.32.88-2.2 2.2-2.2h2.199c1.32 0 2.145.88 2.145 2.2v22.821c0 4.18 2.2 8.524 7.864 8.524 5.555 0 7.81-4.345 7.81-8.524v-22.821c0-1.32.879-2.2 2.199-2.2h2.199c1.32 0 2.2.88 2.2 2.2v21.887c0 9.403-5.114 15.013-14.408 15.013-9.184 0-14.408-5.554-14.408-15.013v-21.887z" id="U_7_"/><path class="st1" d="M433.7 163.711c.33-1.43 1.32-1.814 2.585-1.43 1.43.385 4.345 1.32 7.699 1.32 4.399 0 6.269-2.255 6.269-5.444 0-8.139-16.607-5.444-16.607-18.258 0-6.654 5.389-10.559 12.758-10.559 3.354 0 5.83.77 7.369 1.265 1.265.44 1.925 1.43 1.485 2.805l-.33 1.1c-.44 1.21-1.485 1.76-2.805 1.32-1.375-.44-3.3-.935-5.72-.935-3.904 0-5.884 1.925-5.884 5.004 0 7.149 16.607 5.444 16.607 18.258 0 6.654-5.224 10.998-13.143 10.998-3.685 0-6.71-.824-8.909-1.484-1.375-.385-1.979-1.265-1.649-2.694l.275-1.266z" id="S_7_"/><path class="st1" d="M470.77 140.284c0-6.159 3.85-10.229 11.658-10.229h8.194c1.319 0 2.199.88 2.199 2.2v1.154c0 1.32-.88 2.2-2.199 2.2h-8.139c-3.96 0-5.17 1.814-5.17 5.114v5.279h11.658c1.32 0 2.2.88 2.2 2.199v1.155c0 1.319-.88 2.145-2.2 2.145h-11.658v6.324c0 3.354 1.21 5.06 5.17 5.06h8.358c1.32 0 2.2.88 2.2 2.199v1.155c0 1.319-.88 2.199-2.2 2.199h-8.414c-7.754 0-11.658-4.069-11.658-10.174v-17.98z" id="E_7_"/><path class="st1" d="M110.8 58.477h-4.254v1.012c0 4.807-1.609 8.992-7.221 11.659-.528-.599-1.402-1.472-2.115-2.001 5.266-2.368 6.415-5.863 6.415-9.635v-1.035h-5.933v5.197h-2.897v-5.197h-3.978v-2.759h3.978v-4.599l3.588.229c-.023.229-.253.506-.69.575v3.794h5.933V50.82l3.61.207c-.022.252-.253.459-.689.528v4.162h4.254v2.76z" id="サ_7_"/><path class="st1" d="M117.728 59.167h19.2v2.897h-18.234c-.139.23-.46.391-.782.438l-.184-3.335z" id="_x30FC__25_"/><path class="st1" d="M152.202 54.798c-.068.207-.275.392-.667.437-.851 5.404-2.69 11.13-5.312 14.625a15.733 15.733 0 0 0-2.828-1.494c2.575-3.242 4.346-8.577 4.989-14.326l3.818.758zm9.543 14.924c-1.034-3.726-3.403-10.026-5.656-14.556l2.759-1.288c2.3 4.231 4.783 10.485 5.979 14.511l-3.082 1.333zm-1.954-19.247c.92.896 1.954 2.3 2.483 3.22l-1.357.989c-.528-.897-1.701-2.484-2.506-3.266l1.38-.943zm3.196-.805c.896.92 1.954 2.254 2.529 3.174l-1.403 1.012c-.506-.92-1.701-2.414-2.483-3.242l1.357-.944z" id="バ_7_"/><path class="st1" d="M170.627 59.167h19.201v2.897h-18.235c-.138.23-.46.391-.781.438l-.185-3.335z" id="_x30FC__24_"/><path class="st1" d="M201.926 59.975a31.277 31.277 0 0 1-2.448 2.977c-.288-.744-1.056-2.257-1.512-2.953 2.304-2.279 4.681-6.336 6.072-10.272l3.36 1.151c-.144.265-.384.336-.696.289-.647 1.535-1.368 3.096-2.184 4.584l.96.264c-.048.217-.24.385-.648.456v15.817h-2.904V59.975zm19.057-1.176-6.841.672c.744 5.447 2.161 9.793 3.648 9.816.553 0 .864-1.271.984-4.2.624.672 1.608 1.416 2.4 1.728-.48 4.441-1.44 5.473-3.648 5.473-3.504-.023-5.448-5.616-6.36-12.505l-5.16.504-.265-2.761 5.137-.504c-.216-2.375-.313-4.824-.336-7.2l3.792.192c-.023.287-.24.432-.72.504-.048 2.04.048 4.152.24 6.217l6.84-.672.289 2.736zm-3.912-8.93c1.32 1.176 2.904 2.832 3.624 4.009l-2.328 1.487c-.647-1.127-2.16-2.904-3.48-4.152l2.184-1.344z" id="代_7_"/><path class="st1" d="m242.99 60.646 1.824-1.801c2.521 1.537 6.192 3.912 7.969 5.521l-2.304 2.424c-1.561-1.584-4.896-3.984-7.489-5.664v11.16h-3V60.574c-2.185 2.496-4.849 4.776-7.896 6.457-.408-.721-1.344-1.873-1.896-2.496 4.561-2.305 8.377-6.385 10.609-10.369h-9.745v-2.904h21.025v2.904h-7.681c-.504.96-1.08 1.92-1.704 2.88l.96.216c-.048.217-.239.408-.672.457v2.927z" id="不_7_"/><path class="st1" d="M283.646 65.207h-4.729c-.624 1.128-1.344 2.088-2.208 2.88 2.328.647 4.44 1.296 6.049 1.872l-1.729 2.353c-1.848-.744-4.296-1.561-7.032-2.353-2.688 1.344-6.24 1.992-10.993 2.353-.216-.816-.672-1.849-1.104-2.473 3.168-.12 5.808-.407 7.944-.983-.769-.192-1.561-.36-2.328-.553l-.265.36-2.784-.864c.576-.721 1.225-1.632 1.896-2.592h-4.992v-2.328h6.553l1.104-1.729h-5.616v-6.793h5.089V52.99h-6.961v-2.497h21.938v2.497h-7.152v1.367h5.28v6.793h-9.192l.359.096c-.096.217-.288.313-.72.288l-.84 1.345h12.433v2.328zm-17.521-8.569v2.257h2.377v-2.257h-2.377zm3.553 8.569-.696 1.031c1.513.313 3.048.672 4.561 1.033a8.143 8.143 0 0 0 2.088-2.064h-5.953zm1.536-12.217v1.367h2.376V52.99h-2.376zm0 5.905h2.376v-2.257h-2.376v2.257zm7.536-2.257h-2.424v2.257h2.424v-2.257z" id="要_7_"/><path class="st1" d="m318.233 67.641-1.872 1.872-6.683-6.683-6.683 6.683-1.871-1.872 6.682-6.682-6.682-6.683 1.871-1.872 6.683 6.682 6.683-6.682 1.872 1.872-6.683 6.683 6.683 6.682z" id="_xD7__7_"/><path class="st1" d="M337.244 57.021c2.137.553 4.561 1.44 6.145 2.232l-1.296 2.617c-1.56-.793-4.08-1.801-6.145-2.354l1.296-2.495zm.672 11.186c7.369-2.28 12.722-6.192 16.01-13.297.601.527 1.992 1.56 2.616 1.968-3.265 6.841-9.121 11.401-16.009 13.729.048.24-.072.504-.385.648l-2.232-3.048zm2.209-17.09c2.136.625 4.536 1.512 6.192 2.377l-1.488 2.544c-1.68-.937-3.937-1.896-6.049-2.544l1.345-2.377z" id="シ_7_"/><path class="st1" d="M366.306 52.338c2.3.713 5.059 1.932 6.737 3.035l-1.518 2.621c-1.655-1.104-4.369-2.368-6.576-3.15l1.357-2.506zm-.783 15.567c7.75-2.392 13.085-6.898 15.752-13.222.851.689 1.84 1.241 2.69 1.701-2.852 6.277-8.348 11.176-15.959 13.865-.046.254-.184.506-.391.599l-2.092-2.943z" id="ン_7_"/><path class="st1" d="M409.404 55.925c-.093.185-.322.345-.507.437-2.69 7.91-6.277 12.05-12.187 15.039-.46-.667-1.312-1.633-2.139-2.23 5.427-2.576 8.738-6.186 10.577-11.728h-6.507a22.846 22.846 0 0 1-4.737 5.104c-.552-.574-1.587-1.379-2.346-1.862 3.013-2.069 5.749-5.956 7.105-9.956l3.656.85c-.092.254-.391.392-.735.414-.392.828-.92 1.979-1.334 2.736h6.323l.438-.184 2.393 1.38zm-3.496-5.773c1.012.782 2.254 2.094 2.921 2.967l-1.311 1.15c-.599-.874-1.955-2.3-2.829-3.013l1.219-1.104zm3.656-.62c1.012.805 2.23 2.069 2.897 2.966l-1.333 1.104c-.529-.781-1.84-2.184-2.783-2.966l1.219-1.104z" id="グ_7_"/><path class="st1" d="M424.495 54.385c-.023.252-.23.459-.598.506-.115 6.6-.736 11.934-3.887 16.188a33.318 33.318 0 0 0-2.575-1.494c3.059-3.564 3.473-9.543 3.473-15.43l3.587.23zm5.909 11.957c3.082-1.702 4.968-4.807 6.002-8.371.598.506 1.909 1.242 2.599 1.588-1.655 4.76-4.346 8.117-9.221 10.531a1.6 1.6 0 0 1-.529.574l-2.161-2.529.367-.482v-16.35l3.588.184c-.046.254-.207.483-.645.553v14.302z" id="ル_7_"/><path class="st1" d="M444.438 61.973c1.679-1.701 4.829-5.289 6.323-6.945.759-.805 1.563-1.172 2.322-1.172.782 0 1.61.482 2.461 1.219 2.736 2.414 7.611 7.657 10.67 11.52l-2.461 2.369c-2.759-3.909-7.657-9.404-9.543-11.222-.482-.437-.759-.69-1.034-.69-.253.023-.529.277-.943.713-.781.92-3.564 4.301-5.013 5.957.046.252-.046.574-.299.805l-2.483-2.554zm17.361-11.407a2.473 2.473 0 0 1 2.483 2.484c0 1.379-1.104 2.506-2.483 2.506a2.513 2.513 0 0 1-2.507-2.506c0-1.425 1.173-2.484 2.507-2.484zm1.609 2.485a1.62 1.62 0 0 0-1.609-1.633c-.897 0-1.633.735-1.633 1.633a1.64 1.64 0 0 0 1.633 1.633c.942 0 1.609-.783 1.609-1.633z" id="ペ_8_"/><path class="st1" d="M472.244 59.167h19.2v2.897H473.21c-.139.23-.46.391-.782.438l-.184-3.335z" id="_x30FC__23_"/><path class="st1" d="M499.752 57.281c2.047.529 4.369 1.38 5.887 2.139l-1.241 2.506c-1.495-.758-3.909-1.725-5.887-2.253l1.241-2.392zm.644 10.716c7.013-2.161 12.21-5.933 15.337-12.739.575.506 1.886 1.494 2.507 1.886-3.127 6.554-8.761 10.945-15.338 13.153.046.229-.069.482-.345.621l-2.161-2.921zm2.116-16.372c2.046.598 4.346 1.448 5.933 2.276l-1.426 2.438c-1.609-.897-3.771-1.817-5.795-2.438l1.288-2.276zm10.463-.736c.92.828 2.092 2.207 2.713 3.196l-1.402 1.058c-.529-.896-1.816-2.482-2.622-3.266l1.311-.988zm3.495-1.287c.92.851 2.093 2.23 2.713 3.15l-1.38 1.057c-.574-.92-1.816-2.414-2.621-3.195l1.288-1.012z" id="ジ_8_"/></svg>