<svg xmlns="http://www.w3.org/2000/svg" width="27" height="38"><g data-name="calculator"><path d="M27 38H0V0h27Z" fill="#464036"/><path data-name="Shape" d="M20.5 34a2.5 2.5 0 1 1 2.5-2.5 2.5 2.5 0 0 1-2.5 2.5Zm-7 0a2.5 2.5 0 1 1 2.5-2.5 2.5 2.5 0 0 1-2.5 2.5Zm-7 0A2.5 2.5 0 1 1 9 31.5 2.5 2.5 0 0 1 6.5 34Zm14-7a2.5 2.5 0 1 1 2.5-2.5 2.5 2.5 0 0 1-2.5 2.5Zm-7 0a2.5 2.5 0 1 1 2.5-2.5 2.5 2.5 0 0 1-2.5 2.5Zm-7 0A2.5 2.5 0 1 1 9 24.5 2.5 2.5 0 0 1 6.5 27Zm14-7a2.5 2.5 0 1 1 2.5-2.5 2.5 2.5 0 0 1-2.5 2.5Zm-7 0a2.5 2.5 0 1 1 2.5-2.5 2.5 2.5 0 0 1-2.5 2.5Zm-7 0A2.5 2.5 0 1 1 9 17.5 2.5 2.5 0 0 1 6.5 20ZM23 11H4V4h19v7Z" fill="#e4e1db"/></g></svg>