<svg xmlns="http://www.w3.org/2000/svg" width="36.438" height="38.646"><g data-name="building"><path d="M36.438 38.646H0V0h18.771v12.135h17.667Z" fill="#464036"/><path data-name="Shape" d="M20.979 38.646h-2.208V12.145h2.208v26.5Zm-6.618-3.3H4.41V33.12h9.95v2.224Zm18.778-.017h-3.313v-3.3h3.312v3.3Zm-5.521 0h-3.313v-3.3h3.312v3.3Zm-13.258-5.5H4.41v-2.225h9.95v2.224Zm18.778-.009h-3.312v-3.332h3.312v3.332Zm-5.521 0h-3.312v-3.332h3.312v3.332ZM14.36 24.308H4.41v-2.225h9.95v2.224Zm18.778-.031h-3.312v-3.3h3.312v3.3Zm-5.521 0h-3.312v-3.3h3.312v3.3Zm-13.257-5.49H4.41v-2.224h9.95v2.223Zm18.778-.016h-3.312v-3.308h3.312v3.307Zm-5.521 0h-3.312v-3.309h3.312v3.308ZM14.36 13.249H4.41v-2.208h9.95v2.207Zm0-5.52H4.41V5.52h9.95v2.208Z" fill="#e4e1db"/></g></svg>