<svg xmlns="http://www.w3.org/2000/svg" width="152.83" height="16.22" style="enable-background:new 0 0 152.83 16.22" xml:space="preserve"><g style="enable-background:new"><path d="M0 1.01C0 .58.29.29.72.29h.69c.43 0 .72.29.72.72v13.1h6.41c.43 0 .69.27.69.69v.43c0 .43-.27.69-.69.69H.72c-.43.01-.72-.26-.72-.69V1.01zm15.41 0c0-.43.29-.72.72-.72h.69c.43 0 .72.29.72.72v14.22c0 .43-.29.69-.72.69h-.69c-.43 0-.72-.27-.72-.69V1.01zm8.71 4.79c0-3.72 2.08-5.8 5.64-5.8 1.57 0 2.76.25 3.7.49.47.11.65.38.54.85l-.09.45c-.09.38-.45.56-.9.45-.78-.2-1.72-.4-3.05-.4-2.73 0-3.67 1.66-3.67 4.21v4.14c0 2.58.94 4.21 3.67 4.21 1.17 0 2.13-.22 3.16-.49V9.25c0-.43.22-.74.67-.78l.71-.07c.45-.04.67.22.67.65v5.56c0 .42-.34.78-.76.9-1.14.31-2.76.72-4.64.72-3.56 0-5.64-2.04-5.64-5.78V5.8zM42 1.01c0-.43.29-.72.72-.72h.69c.43 0 .72.29.72.72v5.98h6.83V1.01c0-.43.27-.72.69-.72h.72c.43 0 .69.29.69.72v14.22c0 .43-.27.69-.69.69h-.72c-.43 0-.69-.27-.69-.69V8.8h-6.83v6.43c0 .43-.29.69-.72.69h-.69c-.43 0-.72-.27-.72-.69V1.01zm21.21 1.12h-3.36c-.43 0-.72-.29-.72-.72v-.4c0-.43.29-.72.72-.72h8.85c.43 0 .72.29.72.72v.4c0 .43-.29.72-.72.72h-3.36v13.1c0 .43-.29.69-.72.69h-.69c-.43 0-.72-.27-.72-.69V2.13zm12.25-1.12c0-.43.29-.72.72-.72h.69c.43 0 .72.29.72.72v5.98h6.83V1.01c0-.43.27-.72.69-.72h.72c.43 0 .69.29.69.72v14.22c0 .43-.27.69-.69.69h-.72c-.43 0-.69-.27-.69-.69V8.8h-6.83v6.43c0 .43-.29.69-.72.69h-.69c-.43 0-.72-.27-.72-.69V1.01zm17.65 5.44c0-3.81 2.24-6.45 6-6.45s5.98 2.64 5.98 6.45v3.32c0 3.88-2.22 6.45-5.98 6.45s-6-2.58-6-6.45V6.45zm6.01 7.95c2.93 0 3.81-2.26 3.81-4.86V6.68c0-2.58-.87-4.84-3.81-4.84-2.93 0-3.83 2.26-3.83 4.84v2.87c0 2.59.89 4.85 3.83 4.85zm12.23-13.39c0-.43.29-.72.72-.72h.69c.43 0 .72.29.72.72v9.56c0 1.93 1.05 3.83 3.58 3.83 2.51 0 3.61-1.9 3.61-3.83V1.01c0-.43.27-.72.69-.72h.72c.43 0 .7.29.7.72v9.16c0 3.83-2.04 6.05-5.71 6.05-3.63 0-5.71-2.22-5.71-6.05V1.01zm17.6 13.28c.09-.45.43-.58.85-.47.72.2 1.9.58 3.27.58 2.04 0 2.91-1.08 2.91-2.6 0-3.56-7.03-2.51-7.03-7.57 0-2.69 2.06-4.23 4.97-4.23 1.3 0 2.38.31 3.05.56.43.13.63.45.49.92l-.11.36c-.13.43-.49.56-.92.43-.61-.18-1.48-.43-2.51-.43-1.81 0-2.75.9-2.75 2.4 0 3.18 7.03 2.46 7.03 7.57 0 2.67-1.99 4.41-5.13 4.41-1.5 0-2.73-.34-3.67-.6-.43-.13-.65-.4-.54-.9l.09-.43zm15.12-9.99c0-2.42 1.48-4.01 4.55-4.01h3.43c.43 0 .7.29.7.72v.4c0 .43-.27.72-.7.72h-3.4c-1.9 0-2.46.87-2.46 2.31v2.58h5.2c.43 0 .69.27.69.69v.4c0 .43-.27.72-.69.72h-5.2v2.98c0 1.43.56 2.31 2.46 2.31h3.49c.43 0 .69.27.69.69v.43c0 .43-.27.69-.69.69h-3.52c-3.05 0-4.55-1.59-4.55-3.99V4.3z" style="fill:#333"/></g></svg>